<mxfile host="app.diagrams.net" modified="2024-11-11T13:28:00.988Z" agent="Mozilla/5.0 (Windows NT 10.0; Win64; x64) AppleWebKit/537.36 (KHTML, like Gecko) Chrome/130.0.0.0 Safari/537.36" etag="Q8IOQBlMbOo_oXSp05Bv" version="24.2.2" type="github">
  <diagram name="Page-1" id="3JUo0uPx40sTDKj1SOkp">
    <mxGraphModel dx="2049" dy="1123" grid="1" gridSize="10" guides="1" tooltips="1" connect="1" arrows="1" fold="1" page="1" pageScale="1" pageWidth="827" pageHeight="1169" math="0" shadow="0">
      <root>
        <mxCell id="0" />
        <mxCell id="1" parent="0" />
        <mxCell id="rpqOgKVhTrQ376piV0AC-1" value="" style="rounded=1;whiteSpace=wrap;html=1;" vertex="1" parent="1">
          <mxGeometry x="110" y="260" width="720" height="300" as="geometry" />
        </mxCell>
        <mxCell id="rpqOgKVhTrQ376piV0AC-2" value="&lt;font style=&quot;font-size: 22px;&quot;&gt;GINA MULTI-TOOL&lt;/font&gt;" style="text;html=1;align=center;verticalAlign=middle;whiteSpace=wrap;rounded=0;" vertex="1" parent="1">
          <mxGeometry x="360" y="190" width="280" height="80" as="geometry" />
        </mxCell>
        <mxCell id="rpqOgKVhTrQ376piV0AC-4" value="" style="rounded=1;whiteSpace=wrap;html=1;" vertex="1" parent="1">
          <mxGeometry x="120" y="290" width="480" height="240" as="geometry" />
        </mxCell>
        <mxCell id="rpqOgKVhTrQ376piV0AC-5" value="APP" style="text;html=1;align=center;verticalAlign=middle;whiteSpace=wrap;rounded=0;" vertex="1" parent="1">
          <mxGeometry x="250" y="310" width="60" height="30" as="geometry" />
        </mxCell>
        <mxCell id="rpqOgKVhTrQ376piV0AC-6" value="Bruteforce?" style="ellipse;whiteSpace=wrap;html=1;" vertex="1" parent="1">
          <mxGeometry x="150" y="340" width="100" height="70" as="geometry" />
        </mxCell>
        <mxCell id="rpqOgKVhTrQ376piV0AC-7" value="File compression" style="ellipse;whiteSpace=wrap;html=1;" vertex="1" parent="1">
          <mxGeometry x="290" y="340" width="100" height="70" as="geometry" />
        </mxCell>
        <mxCell id="rpqOgKVhTrQ376piV0AC-8" value="System monitor" style="ellipse;whiteSpace=wrap;html=1;" vertex="1" parent="1">
          <mxGeometry x="160" y="430" width="100" height="70" as="geometry" />
        </mxCell>
        <mxCell id="rpqOgKVhTrQ376piV0AC-9" value="Encryption" style="ellipse;whiteSpace=wrap;html=1;" vertex="1" parent="1">
          <mxGeometry x="290" y="430" width="100" height="70" as="geometry" />
        </mxCell>
        <mxCell id="rpqOgKVhTrQ376piV0AC-10" value="Network packet analizer" style="ellipse;whiteSpace=wrap;html=1;" vertex="1" parent="1">
          <mxGeometry x="450" y="375" width="100" height="70" as="geometry" />
        </mxCell>
        <mxCell id="rpqOgKVhTrQ376piV0AC-11" value="Service to register activity" style="whiteSpace=wrap;html=1;aspect=fixed;" vertex="1" parent="1">
          <mxGeometry x="690" y="370" width="120" height="120" as="geometry" />
        </mxCell>
        <mxCell id="rpqOgKVhTrQ376piV0AC-12" value="" style="shape=flexArrow;endArrow=classic;startArrow=classic;html=1;rounded=0;entryX=0;entryY=0.408;entryDx=0;entryDy=0;entryPerimeter=0;exitX=1.006;exitY=0.55;exitDx=0;exitDy=0;exitPerimeter=0;" edge="1" parent="1" source="rpqOgKVhTrQ376piV0AC-4" target="rpqOgKVhTrQ376piV0AC-11">
          <mxGeometry width="100" height="100" relative="1" as="geometry">
            <mxPoint x="600" y="415" as="sourcePoint" />
            <mxPoint x="660" y="410" as="targetPoint" />
          </mxGeometry>
        </mxCell>
        <mxCell id="rpqOgKVhTrQ376piV0AC-13" value="HTTP" style="text;html=1;align=center;verticalAlign=middle;whiteSpace=wrap;rounded=0;" vertex="1" parent="1">
          <mxGeometry x="610" y="390" width="60" height="30" as="geometry" />
        </mxCell>
        <mxCell id="rpqOgKVhTrQ376piV0AC-14" value="NODE.JS SERVER" style="text;html=1;align=center;verticalAlign=middle;whiteSpace=wrap;rounded=0;" vertex="1" parent="1">
          <mxGeometry x="710" y="315" width="80" height="60" as="geometry" />
        </mxCell>
        <mxCell id="rpqOgKVhTrQ376piV0AC-15" value="REDIS DATABASE" style="shape=cylinder3;whiteSpace=wrap;html=1;boundedLbl=1;backgroundOutline=1;size=15;" vertex="1" parent="1">
          <mxGeometry x="960" y="440" width="130" height="150" as="geometry" />
        </mxCell>
        <mxCell id="rpqOgKVhTrQ376piV0AC-17" value="" style="shape=flexArrow;endArrow=classic;startArrow=classic;html=1;rounded=0;entryX=0;entryY=0.5;entryDx=0;entryDy=0;entryPerimeter=0;" edge="1" parent="1" source="rpqOgKVhTrQ376piV0AC-11" target="rpqOgKVhTrQ376piV0AC-15">
          <mxGeometry width="100" height="100" relative="1" as="geometry">
            <mxPoint x="810" y="445" as="sourcePoint" />
            <mxPoint x="910" y="345" as="targetPoint" />
          </mxGeometry>
        </mxCell>
        <mxCell id="rpqOgKVhTrQ376piV0AC-18" value="NOSQL&lt;div&gt;&lt;br&gt;&lt;/div&gt;" style="text;html=1;align=center;verticalAlign=middle;whiteSpace=wrap;rounded=0;rotation=25;" vertex="1" parent="1">
          <mxGeometry x="860" y="460" width="60" height="30" as="geometry" />
        </mxCell>
        <mxCell id="rpqOgKVhTrQ376piV0AC-19" value="(MONOLITH)" style="text;html=1;align=center;verticalAlign=middle;whiteSpace=wrap;rounded=0;" vertex="1" parent="1">
          <mxGeometry x="700" y="300" width="100" height="30" as="geometry" />
        </mxCell>
        <mxCell id="rpqOgKVhTrQ376piV0AC-20" value="Detalii:&lt;div&gt;- Bruteforce tool ul din aplicatie este pt a&amp;nbsp; demonstra vulnerabilitatea platformelor de tipul nordvpn, spotify, disney+ impotriva atacurilor de tip bruteforcing&lt;/div&gt;&lt;div&gt;- File compression&amp;nbsp; vom folosi Huffman Coding&lt;/div&gt;&lt;div&gt;-Encryption / Decrypt ( nu stiu inca sigur daca o sa facem sau nu, dar va fi ceva simplut, prob un encryption pt fisierele text )&lt;/div&gt;&lt;div&gt;-System monitor, ceva simplu ( monitorizarea resurselor folosite de sistem, ram, procesor etc )&lt;/div&gt;&lt;div&gt;- Network packet analyzer ( inspecteaza pachetele de net ce trec prin pc )&lt;/div&gt;&lt;div&gt;- Un service in node.js pt a inregistra activitatea aplicatiei noastre si fiecare request sau serviice folosit va fi adaugat in redis db. La fiecare service folosit de tipu file compression, programu face un POST request catre server ul in node.js iar mai departe server ul da handle si stocheaza ip u persoanei ce a folosit service u&amp;nbsp; + ce service a folosit in baza.&lt;/div&gt;&lt;div&gt;Ca host pot face self host pe un raspberry pi la&amp;nbsp; sv sau putem folosii ceva free sau trial cum e GCP sau digital ocean&amp;nbsp;&lt;/div&gt;&lt;div&gt;&lt;br&gt;&lt;/div&gt;" style="text;html=1;align=center;verticalAlign=middle;whiteSpace=wrap;rounded=0;" vertex="1" parent="1">
          <mxGeometry x="130" y="620" width="420" height="230" as="geometry" />
        </mxCell>
      </root>
    </mxGraphModel>
  </diagram>
</mxfile>
